<svg xmlns="http://www.w3.org/2000/svg" xmlns:xlink="http://www.w3.org/1999/xlink" id="Layer_1" x="0px" y="0px" viewBox="0 0 300 300" style="enable-background:new 0 0 300 300;" xml:space="preserve">
<style type="text/css">
	.st0{fill-rule:evenodd;clip-rule:evenodd;fill:#C7C3C2;}
	.st1{fill-rule:evenodd;clip-rule:evenodd;fill:#03AEA5;}
	.st2{fill-rule:evenodd;clip-rule:evenodd;fill:#038D86;}
	.st3{fill-rule:evenodd;clip-rule:evenodd;fill:#73253B;}
	.st4{fill-rule:evenodd;clip-rule:evenodd;fill:#5E1E30;}
	.st5{fill-rule:evenodd;clip-rule:evenodd;fill:#EFBB86;}
	.st6{fill-rule:evenodd;clip-rule:evenodd;fill:#F2C89D;}
	.st7{fill-rule:evenodd;clip-rule:evenodd;fill:#1A1A1A;}
	.st8{fill-rule:evenodd;clip-rule:evenodd;fill:#2B2B2B;}
	.st9{fill-rule:evenodd;clip-rule:evenodd;fill:#F49C17;}
</style>
<g>
	<polygon class="st0" points="215.59,260.22 40.39,260.22 40.39,265.99 215.59,265.99 215.59,260.22  "></polygon>
	<polygon class="st0" points="215.59,267.95 40.39,267.95 40.39,273.72 215.59,273.72 215.59,267.95  "></polygon>
	<g>
		<polygon class="st0" points="215.59,252.48 40.39,252.48 40.39,258.24 215.59,258.24 215.59,252.48   "></polygon>
		<polygon class="st0" points="215.59,244.74 40.39,244.74 40.39,250.51 215.59,250.51 215.59,244.74   "></polygon>
		<path class="st1" d="M230.75,251.54c-3.88,0-7.05,3.16-7.05,7.04v19.47H47.01c-10.69,0-19.43-8.5-19.86-19.1    c0.01-0.19,0.04-0.37,0.04-0.56c0-0.31-0.01-0.79-0.03-1.43c0.63-10.42,9.28-18.73,19.85-18.73h182c0.57,0,1.09-0.08,1.62-0.2    c0.04-0.01,0.08,0,0.12,0c3.88-0.01,7.04-3.15,7.04-7.03v-59.94v-54.23l-36.34,54.18l-47.86,35.23l9.7-57.08l74.5-111.06v-6.13    c0-3.88-3.16-7.04-7.04-7.04h-1.74H128.04H104.9H47.05h-0.03c-18.74,0-33.98,15.24-33.98,33.98c0,0.26,0.04,0.49,0.07,0.73    c0,1.23,0,3.2,0,5.78c-0.03,19.16-0.09,72.52-0.11,118.4c0,3.75,0,7.46,0,11.09c-0.01,29.72,0.01,54.56,0.08,61.97    c-0.01,0.4-0.06,0.8-0.06,1.22c0,3.07,0.41,6.03,1.17,8.85c3.74,13.79,15.94,24.11,30.68,25.02c0.35,0.06,0.7,0.12,1.07,0.12    h184.8c3.88,0,7.05-3.16,7.05-7.05v-26.5C237.8,254.69,234.63,251.54,230.75,251.54L230.75,251.54z"></path>
		<path class="st2" d="M40.3,239.4V25.62c-15.53,3.13-27.26,16.87-27.26,33.31c0,0.26,0.04,0.49,0.07,0.73v5.78    c-0.03,19.16-0.09,72.52-0.11,118.4v11.09c-0.01,29.72,0.01,54.56,0.08,61.97c-0.01,0.4-0.06,0.8-0.06,1.22    c0,3.07,0.41,6.03,1.17,8.85c3.34,12.34,13.46,21.89,26.1,24.43v-14.54c-7.42-2.68-12.81-9.66-13.15-17.93l0.04-0.56    c0-0.31-0.01-0.79-0.03-1.43C27.66,248.86,32.99,242.04,40.3,239.4L40.3,239.4z"></path>
		<path class="st2" d="M223.7,278.05H47.01c-2.35,0-5.37-0.61-7.47-1.38v14.54c1.49,0.3,3.78,0.71,5.34,0.8    c0.35,0.06,0.7,0.12,1.07,0.12h184.8c3.88,0,7.05-3.16,7.05-7.05v-26.5c0-3.89-3.17-7.04-7.05-7.04c-3.88,0-7.05,3.16-7.05,7.04    V278.05L223.7,278.05z"></path>
		<path class="st3" d="M271.21,6.13l-98.95,147.51l6.65,3.82L277.86,9.95c0.46-0.68,0.78-1.39,0.97-2.09l-5.93-3.55    C272.28,4.79,271.69,5.41,271.21,6.13L271.21,6.13z"></path>
		<path class="st4" d="M293.02,18.43L193.96,166.1l4.89,2.8l93.83-139.87c2.9-4.33,3.28-9.22,1.25-12.13l-0.1-0.05    C293.63,17.38,293.36,17.91,293.02,18.43L293.02,18.43z"></path>
		<path class="st4" d="M172.26,153.64L271.21,6.13c0.49-0.72,1.07-1.33,1.7-1.82l-0.28-0.17c-3.64-1.29-8.75,1.07-11.84,5.68    l-94.27,140.53l5.38,3.09L172.26,153.64L172.26,153.64z"></path>
		<path class="st3" d="M286.32,14.55l-99.06,147.68l6.91,3.97l99.06-147.68c0.35-0.52,0.41-1.15,0.6-1.68l-6.19-3.71    C287.17,13.56,286.69,14,286.32,14.55L286.32,14.55z"></path>
		<path class="st4" d="M187.3,162.28L286.36,14.6c0.37-0.56,0.81-1.05,1.27-1.46l-8.8-5.28c-0.19,0.69-0.64,1.35-1.1,2.03    l-98.95,147.52L187.3,162.28L187.3,162.28z"></path>
		<polygon class="st5" points="161.5,182 176.11,160.36 164.29,153.59 160.42,181.38 161.5,182   "></polygon>
		<polygon class="st5" points="186.95,166.56 172.31,188.23 172.98,188.61 196.59,172.08 186.95,166.56   "></polygon>
		<polygon class="st6" points="176.11,160.36 161.5,182 172.31,188.23 186.95,166.56 176.11,160.36   "></polygon>
		<polygon class="st7" points="168.37,185.95 161.91,196.35 172.98,188.61 172.31,188.23 168.37,185.95   "></polygon>
		<polygon class="st8" points="161.91,196.35 168.52,186.04 165.33,184.2 158.55,194.79 157.94,199.13 161.91,196.35   "></polygon>
		<polygon class="st7" points="160.03,184.18 161.52,182.01 160.42,181.38 160.03,184.18   "></polygon>
		<polygon class="st7" points="158.53,194.89 165.38,184.24 161.5,182 160.03,184.18 158.53,194.89   "></polygon>
		<polygon class="st9" points="55.34,24.95 55.34,114.46 88.4,88.21 120.3,114.46 120.3,24.95 104.9,24.95 55.34,24.95   "></polygon>
	</g>
</g>
</svg>