<svg xmlns="http://www.w3.org/2000/svg" xmlns:xlink="http://www.w3.org/1999/xlink" id="Layer_1" x="0px" y="0px" viewBox="0 0 300 300" style="enable-background:new 0 0 300 300;" xml:space="preserve">
<style type="text/css">
	.st0{fill:#3B5D78;}
	.st1{fill:#078E68;}
	.st2{fill:#6A67F4;}
	.st3{fill:#709BA7;}
	.st4{fill:#FFFFFF;}
	.st5{fill:#BFBFBF;}
	.st6{fill:#B5B5B5;}
</style>
<g>
	<rect x="105.12" y="185.97" class="st0" width="4.97" height="16.81"></rect>
	<rect x="83.78" y="195.85" class="st0" width="29.16" height="2.48"></rect>
	<rect x="86.62" y="185.97" class="st0" width="4.97" height="16.81"></rect>
	<rect x="96.4" y="185.97" class="st0" width="4.97" height="16.81"></rect>
	<g>
		<rect x="79.02" y="155.3" class="st0" width="1.59" height="34.39"></rect>
		<rect x="79.81" y="158.27" class="st0" width="5.6" height="1.95"></rect>
		<rect x="79.81" y="162.71" class="st0" width="5.6" height="1.96"></rect>
		<rect x="79.81" y="167.15" class="st0" width="5.6" height="1.96"></rect>
		<rect x="79.81" y="171.59" class="st0" width="5.6" height="1.96"></rect>
		<rect x="79.81" y="176.03" class="st0" width="5.6" height="1.96"></rect>
		<rect x="79.81" y="180.47" class="st0" width="5.6" height="1.96"></rect>
		<rect x="79.81" y="184.91" class="st0" width="5.6" height="1.96"></rect>
	</g>
	<rect x="63.88" y="185.97" class="st0" width="4.97" height="16.81"></rect>
	<rect x="42.54" y="195.85" class="st0" width="29.16" height="2.48"></rect>
	<rect x="45.38" y="185.97" class="st0" width="4.97" height="16.81"></rect>
	<rect x="55.16" y="185.97" class="st0" width="4.97" height="16.81"></rect>
	<g>
		<rect x="37.89" y="154.24" class="st0" width="1.59" height="34.39"></rect>
		<rect x="38.69" y="157.21" class="st0" width="5.6" height="1.96"></rect>
		<rect x="38.69" y="161.65" class="st0" width="5.6" height="1.96"></rect>
		<rect x="38.69" y="166.09" class="st0" width="5.6" height="1.96"></rect>
		<rect x="38.69" y="170.53" class="st0" width="5.6" height="1.96"></rect>
		<rect x="38.69" y="174.97" class="st0" width="5.6" height="1.96"></rect>
		<rect x="38.69" y="179.41" class="st0" width="5.6" height="1.96"></rect>
		<rect x="38.69" y="183.86" class="st0" width="5.6" height="1.96"></rect>
	</g>
	<rect x="83.16" y="105.93" class="st1" width="58.97" height="6.76"></rect>
	<rect x="83.78" y="154.24" class="st2" width="29.16" height="34.39"></rect>
	<g>
		<g>
			<polygon class="st2" points="98.36,135.34 83.78,154.24 98.36,154.24 112.94,154.24    "></polygon>
			<polygon class="st2" points="42.54,154.24 42.54,188.63 71.7,188.63 71.7,154.24 57.12,135.34    "></polygon>
		</g>
	</g>
	<polygon class="st1" points="267.88,138.48 278.6,138.48 289.31,138.48 288.43,122.88 268.76,122.88  "></polygon>
	<polygon class="st1" points="284.23,48.4 278.6,48.4 272.96,48.4 271.21,79.46 285.98,79.46  "></polygon>
	<polygon class="st3" points="268.76,122.88 288.43,122.88 287.62,108.41 269.58,108.41  "></polygon>
	<polygon class="st1" points="270.39,93.93 269.58,108.41 287.62,108.41 286.8,93.93  "></polygon>
	<polygon class="st3" points="285.98,79.46 271.21,79.46 270.39,93.93 286.8,93.93  "></polygon>
	<rect x="269.43" y="56.15" class="st3" width="18.32" height="9.02"></rect>
	<rect x="126.79" y="144.63" class="st0" width="73.58" height="96.84"></rect>
	<rect x="262.67" y="135.12" class="st0" width="32.33" height="106.36"></rect>
	<polygon class="st0" points="126.79,241.48 4.98,241.48 4.98,221.81 23.8,202.57 126.79,202.57  "></polygon>
	<g>
		<path class="st1" d="M60.47,140.24H53.7v-9.08c0-4.91,3.99-8.9,8.9-8.9h29.82v6.77H62.6c-1.18,0-2.13,0.96-2.13,2.13V140.24z"></path>
		<path class="st1" d="M81.74,123.91h-6.76v-9.08c0-4.91,3.99-8.9,8.9-8.9h15.82v6.76H83.87c-1.18,0-2.13,0.96-2.13,2.13V123.91z"></path>
		<path class="st1" d="M102.17,140.24H95.4v-9.08c0-1.18-0.96-2.13-2.14-2.13H63.45v-6.77h29.82c4.91,0,8.9,3.99,8.9,8.9V140.24z"></path>
	</g>
	<rect x="133.33" y="98.82" class="st0" width="54.76" height="45.82"></rect>
	<g>
		<g>
			<rect x="26.41" y="209.35" class="st4" width="7.7" height="4.12"></rect>
			<rect x="38.99" y="209.35" class="st4" width="7.7" height="4.12"></rect>
			<rect x="51.58" y="209.35" class="st4" width="7.7" height="4.12"></rect>
			<rect x="64.16" y="209.35" class="st4" width="7.7" height="4.12"></rect>
			<rect x="76.74" y="209.35" class="st4" width="7.7" height="4.12"></rect>
			<rect x="89.33" y="209.35" class="st4" width="7.7" height="4.12"></rect>
			<rect x="101.91" y="209.35" class="st4" width="7.7" height="4.12"></rect>
			<rect x="114.5" y="209.35" class="st4" width="7.7" height="4.12"></rect>
		</g>
		<g>
			<rect x="26.41" y="220.95" class="st4" width="7.7" height="4.11"></rect>
			<rect x="38.99" y="220.95" class="st4" width="7.7" height="4.11"></rect>
			<rect x="51.58" y="220.95" class="st4" width="7.7" height="4.11"></rect>
			<rect x="64.16" y="220.95" class="st4" width="7.7" height="4.11"></rect>
			<rect x="76.74" y="220.95" class="st4" width="7.7" height="4.11"></rect>
			<rect x="89.33" y="220.95" class="st4" width="7.7" height="4.11"></rect>
			<rect x="101.91" y="220.95" class="st4" width="7.7" height="4.11"></rect>
			<rect x="114.5" y="220.95" class="st4" width="7.7" height="4.11"></rect>
		</g>
		<g>
			<rect x="26.41" y="232.54" class="st4" width="7.7" height="4.12"></rect>
			<rect x="38.99" y="232.54" class="st4" width="7.7" height="4.12"></rect>
			<rect x="51.58" y="232.54" class="st4" width="7.7" height="4.12"></rect>
			<rect x="64.16" y="232.54" class="st4" width="7.7" height="4.12"></rect>
			<rect x="76.74" y="232.54" class="st4" width="7.7" height="4.12"></rect>
			<rect x="89.33" y="232.54" class="st4" width="7.7" height="4.12"></rect>
			<rect x="101.91" y="232.54" class="st4" width="7.7" height="4.12"></rect>
			<rect x="114.5" y="232.54" class="st4" width="7.7" height="4.12"></rect>
		</g>
	</g>
	<g>
		<g>
			<g>
				<rect x="201.08" y="183.86" class="st5" width="31.1" height="14.34"></rect>
				<path class="st0" d="M233.03,199.04h-32.79v-16.03h32.79V199.04z M201.92,197.35h29.41V184.7h-29.41V197.35z"></path>
			</g>
			<g>
				
					<rect x="198.28" y="190.18" transform="matrix(0.7357 -0.6773 0.6773 0.7357 -74.1826 191.9346)" class="st0" width="21.15" height="1.69"></rect>
			</g>
			<g>
				
					<rect x="223.56" y="180.45" transform="matrix(0.6779 -0.7351 0.7351 0.6779 -68.1529 226.4917)" class="st0" width="1.69" height="21.15"></rect>
			</g>
		</g>
		<g>
			<g>
				<rect x="232.18" y="183.86" class="st5" width="31.11" height="14.34"></rect>
				<path class="st0" d="M264.13,199.04h-32.8v-16.03h32.8V199.04z M233.03,197.35h29.41V184.7h-29.41V197.35z"></path>
			</g>
			<g>
				
					<rect x="229.38" y="190.18" transform="matrix(0.7349 -0.6781 0.6781 0.7349 -65.9369 213.3566)" class="st0" width="21.16" height="1.69"></rect>
			</g>
			<g>
				
					<rect x="254.66" y="180.45" transform="matrix(0.6779 -0.7352 0.7352 0.6779 -58.1297 249.385)" class="st0" width="1.69" height="21.15"></rect>
			</g>
		</g>
	</g>
	<g>
		<g>
			<polygon class="st5" points="187.66,85.99 175.08,85.99 162.5,85.99 162.5,98.82 187.66,98.82 200.24,85.99    "></polygon>
			<polygon class="st5" points="253.77,139.72 235.98,121.93 218.19,104.13 200.4,86.34 188.09,98.65 205.88,116.44 223.67,134.23      241.47,152.03 262.67,173.67 262.67,148.61    "></polygon>
		</g>
		<g>
			<path class="st0" d="M263.52,148.27l-9.74-9.74l0,0l-16.59-16.6l0,0l-17.79-17.79l0,0l-0.4-0.4l-0.8-0.8l0,0l-17.8-17.79     l-0.11,0.11l-0.05-0.11h-12.58h-12.58H162.5l-0.85,0.84v12.83l0.59,0.24l0.25,0.6h25.16l0.07-0.17l18.15,18.15l16.6,16.6l1.2,1.2     l17.1,17.1l22.75,23.22V148.27z M229.23,127.48l-4.31,4.3l2.73-16.99l7.13,7.13L229.23,127.48z M243.86,131.84l-2.96,18.42     l-15.45-15.45L243.86,131.84z M226.12,132.99l9.86-9.86l7.13,7.13L226.12,132.99z M253.77,140.92l7.13,7.13l-16.99,2.73     L253.77,140.92z M242.72,149.58l2.74-16.99l7.12,7.13L242.72,149.58z M218.19,105.33l7.13,7.13l-16.99,2.73l4.31-4.31     L218.19,105.33z M200.4,87.54l7.13,7.13l-16.99,2.74L200.4,87.54z M208.27,96.26l-2.97,18.41l-15.45-15.45L208.27,96.26z      M211.44,109.69l-4.31,4.31l2.74-16.99l7.13,7.13L211.44,109.69z M188.5,96.75v-9.91h9.72L188.5,96.75z M186.81,96.75l-9.72-9.91     h9.72V96.75z M163.34,86.84h9.72l-5.82,5.94l-3.9,3.97V86.84z M164.51,97.97l10.56-10.77l10.57,10.77H164.51z M207.65,117.01     l18.41-2.96l-2.96,18.42L207.65,117.01z M243.21,152.6l18.61-3v21.99L243.21,152.6z"></path>
		</g>
		<g>
			<rect x="261.83" y="148.61" class="st0" width="1.69" height="25.06"></rect>
		</g>
	</g>
	<g>
		<g>
			<rect x="133.96" y="159.72" class="st5" width="6.99" height="15.34"></rect>
			<rect x="143.14" y="159.72" class="st5" width="7" height="15.34"></rect>
		</g>
		<g>
			<rect x="155.49" y="159.72" class="st5" width="6.99" height="15.34"></rect>
			<rect x="164.67" y="159.72" class="st5" width="6.99" height="15.34"></rect>
		</g>
		<g>
			<rect x="176.75" y="159.72" class="st5" width="6.99" height="15.34"></rect>
			<rect x="185.93" y="159.72" class="st5" width="6.99" height="15.34"></rect>
		</g>
		<g>
			<rect x="134.1" y="185.38" class="st5" width="6.99" height="15.34"></rect>
			<rect x="143.28" y="185.38" class="st5" width="6.99" height="15.34"></rect>
		</g>
		<g>
			<rect x="155.62" y="185.38" class="st5" width="6.99" height="15.34"></rect>
			<rect x="164.8" y="185.38" class="st5" width="6.99" height="15.34"></rect>
		</g>
		<g>
			<rect x="176.88" y="185.38" class="st5" width="6.99" height="15.34"></rect>
			<rect x="186.06" y="185.38" class="st5" width="7" height="15.34"></rect>
		</g>
		<g>
			<rect x="134.23" y="211.05" class="st5" width="6.99" height="15.34"></rect>
			<rect x="143.41" y="211.05" class="st5" width="6.99" height="15.34"></rect>
		</g>
		<g>
			<rect x="155.75" y="211.05" class="st5" width="7" height="15.34"></rect>
			<rect x="164.93" y="211.05" class="st5" width="6.99" height="15.34"></rect>
		</g>
		<g>
			<rect x="177.02" y="211.05" class="st5" width="6.99" height="15.34"></rect>
			<rect x="186.2" y="211.05" class="st5" width="6.99" height="15.34"></rect>
		</g>
	</g>
	<g>
		<g>
			<rect x="270.62" y="191.02" class="st4" width="6.99" height="8.91"></rect>
			<rect x="279.8" y="191.02" class="st4" width="6.99" height="8.91"></rect>
		</g>
		<g>
			<g>
				<rect x="270.75" y="205.92" class="st4" width="6.99" height="8.9"></rect>
				<rect x="279.93" y="205.92" class="st4" width="6.99" height="8.9"></rect>
			</g>
		</g>
		<g>
			<g>
				<rect x="270.88" y="220.82" class="st4" width="6.99" height="8.91"></rect>
				<rect x="280.06" y="220.82" class="st4" width="6.99" height="8.91"></rect>
			</g>
		</g>
	</g>
	<g>
		<g>
			<rect x="270.62" y="146.87" class="st4" width="6.99" height="8.91"></rect>
			<rect x="279.8" y="146.87" class="st4" width="6.99" height="8.91"></rect>
		</g>
		<g>
			<rect x="270.75" y="161.76" class="st4" width="6.99" height="8.91"></rect>
			<rect x="279.93" y="161.76" class="st4" width="6.99" height="8.91"></rect>
		</g>
		<g>
			<rect x="270.88" y="176.66" class="st4" width="6.99" height="8.9"></rect>
			<rect x="280.06" y="176.66" class="st4" width="6.99" height="8.9"></rect>
		</g>
	</g>
	<rect x="42.54" y="154.28" class="st6" width="29.16" height="7.83"></rect>
	<rect x="42.54" y="173.02" class="st6" width="29.16" height="7.83"></rect>
	<rect x="83.78" y="154.21" class="st6" width="29.16" height="7.83"></rect>
	<rect x="83.78" y="172.95" class="st6" width="29.16" height="7.82"></rect>
	<rect x="200.37" y="210.2" class="st0" width="62.3" height="31.28"></rect>
	<rect x="214.82" y="218.72" class="st4" width="16.07" height="19.94"></rect>
	<rect x="232.15" y="218.72" class="st4" width="16.07" height="19.94"></rect>
	<g>
		<g>
			<path class="st0" d="M142.39,89.7c-2.67,0-4.83,2.17-4.83,4.83v4.38h9.66v-4.38C147.22,91.87,145.05,89.7,142.39,89.7z"></path>
			<path class="st0" d="M158.26,94.53c0-2.67-2.17-4.83-4.83-4.83c-2.67,0-4.83,2.17-4.83,4.83v4.38h9.66V94.53z"></path>
		</g>
	</g>
	<rect x="141.65" y="105.93" class="st5" width="38.11" height="3.38"></rect>
	<rect x="141.65" y="113.95" class="st5" width="38.11" height="3.38"></rect>
	<rect x="141.65" y="121.97" class="st5" width="38.11" height="3.38"></rect>
	<rect x="141.65" y="129.99" class="st5" width="38.11" height="3.38"></rect>
</g>
</svg>