<!--?xml version="1.0" standalone="no"?-->
              <svg id="sw-js-blob-svg" viewBox="0 0 100 100" xmlns="http://www.w3.org/2000/svg" version="1.1">
                    <defs> 
                        <linearGradient id="sw-gradient" x1="0" x2="1" y1="1" y2="0">
                            <stop id="stop1" stop-color="rgba(25, 135, 184, 1)" offset="0%"></stop>
                            <stop id="stop2" stop-color="rgba(0, 0, 0, 1)" offset="100%"></stop>
                        </linearGradient>
                    </defs>
                <path fill="url(#sw-gradient)" d="M17.8,-26.1C24.3,-23.6,31.7,-20.7,33.8,-15.6C35.9,-10.5,32.7,-3.1,30.3,3.4C27.9,9.9,26.1,15.5,23.2,21.5C20.2,27.5,16,33.8,10.3,36C4.5,38.2,-2.7,36.1,-8.4,32.6C-14,29.1,-18,24.1,-24.3,19.6C-30.5,15,-38.9,10.9,-41.3,5C-43.6,-0.9,-39.7,-8.7,-35.2,-15C-30.6,-21.4,-25.4,-26.3,-19.4,-29.1C-13.4,-31.9,-6.7,-32.5,-0.5,-31.7C5.7,-30.9,11.3,-28.7,17.8,-26.1Z" width="100%" height="100%" transform="translate(50 50)" stroke-width="0" style="transition: all 0.3s ease 0s;" stroke="url(#sw-gradient)"></path>
              </svg>