<svg xmlns="http://www.w3.org/2000/svg" viewBox="0 0 270.59 258.53"><defs><style>.cls-1{fill:#fff;}.cls-2{isolation:isolate;}.cls-3{fill:#f4bf3b;}.cls-4{fill:#8e2085;}.cls-4,.cls-5{fill-rule:evenodd;}.cls-5{fill:#822a85;}</style></defs><title>aura logo flat</title><g id="Layer_2" data-name="Layer 2"><g id="Layer_1-2" data-name="Layer 1"><g id="Layer_1-2-2" data-name="Layer 1-2"><path class="cls-1" d="M270.54,98V0H0V176.92c19.32,47.48,72.59,81.61,135.29,81.61s116-34.15,135.3-81.66V98.11Z"/><g class="cls-2"><path class="cls-3" d="M89.25,120.25s-18.69-.46-22.56.17-8.27,1.89-10.6,4.26c0,0,2.83-20.45,14.39-34.28,4.29-6,26-29.74,57.2-30.31,24.93-1.36,66.42,13,77.83,60,0,0-17.31.19-21.58.87a32.69,32.69,0,0,0-9.9,3.6s-4.43-18.75-22.13-27.65c-21.05-10.49-50.45-5.5-62.65,23.37"/></g><path class="cls-4" d="M82.49,135.23s.09,19.27.11,20,1.23,4.12,3.73,4.18,4-2.71,4.11-4.07.13-28.37.13-28.37H68.32c-6.2,0-15.15,7-15.12,16.57s9.17,15.13,14.52,15.65c3.5.26,7.77.16,8.2.15A4.31,4.31,0,0,0,80,155c-.11-1.06-1.19-3.87-3.73-3.94s-8.67.45-10-.32a7.92,7.92,0,0,1-4.74-7.55c-.16-3.26,2.24-7.75,6.21-8.23,1.73,0,14.82.27,14.82.27"/><path class="cls-4" d="M98.43,132.17c0-1.22,1-5.18,3.78-5.24s4.05,2.86,4.14,4.55,0,13,0,13.36a8.39,8.39,0,0,0,8.36,6.47c1.24,0,7-.93,7.84-6.94.07-1.5.25-12.56.23-13.12s.42-4,3.7-4.23a4.5,4.5,0,0,1,4.08,4c-.08.87,0,11.78-.12,12.7s-.63,8.41-5.57,11.85c-1.46,1.16-11.34,8.44-21.94-.84-1.67-1.44-4.43-5.63-4.64-12.54,0-1.28.09-8.75.11-10"/><path class="cls-4" d="M145.6,155.33c0,.63-1.11,4.15-3.87,4.21s-4.06-3-4.09-4.26.28-12.45.22-13.11c-.12-2.71,4.34-13.87,13.69-14.8,5.07-.26,9.37-.18,9.8-.19.76-.05,4.51,1.17,4.69,3.75s-2.52,4.29-3.41,4.35-10.33-.19-11.3.13-5.57,2.28-5.92,9.61c-.09,1.61.17,9.68.19,10.31"/><path class="cls-4" d="M208.12,127c1.51-.84,13.33-11.18,15-13.29s14.1-16.87,17.11-23.15c0,0,3.93,2,.5,14.11-1.15,3.07-1.28,4-2.62,5.23-3.13,3.93-24.86,16.65-29.63,28.15,0,0,3.21-6.44,11.61-12.72,2.71-1.57,17.57-13.52,17.95-14.09s1,6.63-2.78,10.23c-.92,1.31-5.3,3.08-5.3,3.08s-17.86,7.66-21.65,15.85c0,0,1.66-3.11,7.43-7.49a113,113,0,0,1,12-6.86c.84-.42.67.93.63,1.39s0,5.94-5.24,8.4c-2.76,1.27-9.37,1.27-14.91,5.51a20.4,20.4,0,0,1,6.54-2.89c2.32-.56,5.83-1.33,6-1.29s.11,4.19-3,7c-2.18,2-8.64,3-9.91,3.2,0,4.17,0,7.43-.07,7.88-.08,1.37-1.61,4.13-4.11,4.07s-3.71-3.49-3.73-4.17-.11-20-.11-20-13.09-.26-14.82-.26c-4,.47-6.36,5-6.21,8.22a7.92,7.92,0,0,0,4.74,7.55c1.37.78,7.5.26,10,.33s3.62,2.88,3.73,3.93a4.3,4.3,0,0,1-4.05,4.32c-.42,0-4.7.11-8.21-.15-5.34-.52-14.48-6-14.51-15.65s8.92-16.61,15.12-16.57h22.25v.39a.51.51,0,0,1,.19-.22"/><path class="cls-5" d="M204,176h0v6.19h3.54a3,3,0,0,0,1.84-.4,2.55,2.55,0,0,0,.69-1.86h.43v5.45H210a5.71,5.71,0,0,0-.34-1.47,1.35,1.35,0,0,0-.7-.63,3.59,3.59,0,0,0-1.49-.23H204v5.16a5.4,5.4,0,0,0,.09,1.27.77.77,0,0,0,.34.35,1.84,1.84,0,0,0,.9.14H208a8.42,8.42,0,0,0,2-.18,2.92,2.92,0,0,0,1.18-.74,8.65,8.65,0,0,0,1.5-2.15h.49l-1.39,3.92H199.37v-.43h.56a2.36,2.36,0,0,0,1.08-.26,1,1,0,0,0,.52-.56,5.2,5.2,0,0,0,.14-1.52v-10.2a3.21,3.21,0,0,0-.31-1.83,1.87,1.87,0,0,0-1.43-.46h-.56v-.43h12.39l.18,3.46h-.47a5.23,5.23,0,0,0-.54-1.72,2,2,0,0,0-.9-.71,5.23,5.23,0,0,0-1.67-.18Zm-14-.44h0v-.43h6.9v.43h-.59a1.71,1.71,0,0,0-1.43.56,3.31,3.31,0,0,0-.29,1.78v7.66a8.48,8.48,0,0,1-.4,2.87,4.34,4.34,0,0,1-1.36,1.91,3.57,3.57,0,0,1-2.34.81,2.61,2.61,0,0,1-1.74-.53,1.57,1.57,0,0,1-.64-1.23,1.17,1.17,0,0,1,.3-.86,1.26,1.26,0,0,1,.9-.35,1,1,0,0,1,.67.24,3.78,3.78,0,0,1,.76,1.28c.18.42.41.62.7.62a.73.73,0,0,0,.59-.38,2.34,2.34,0,0,0,.27-1.35V177.9a4.61,4.61,0,0,0-.15-1.57,1,1,0,0,0-.49-.49,2.15,2.15,0,0,0-1.08-.28Zm-22.07-.43h4.32l9.86,11.76v-9a3.07,3.07,0,0,0-.34-1.81,1.85,1.85,0,0,0-1.4-.48h-.57v-.43h5.66v.43h-.58a1.69,1.69,0,0,0-1.47.6,3.48,3.48,0,0,0-.26,1.69v13.2h-.43l-10.59-12.62v9.65a3.08,3.08,0,0,0,.33,1.81,1.85,1.85,0,0,0,1.4.48h.57v.43h-5.65v-.43h.57a1.69,1.69,0,0,0,1.47-.6,3.37,3.37,0,0,0,.26-1.69V177.19a8.68,8.68,0,0,0-1.05-1.05,4.21,4.21,0,0,0-1.06-.48,3.74,3.74,0,0,0-1-.1Zm-8.28,9.6h0L157,178.41l-2.78,6.32Zm.37.85h-6.24L152.71,188a4.1,4.1,0,0,0-.4,1.36.77.77,0,0,0,.36.63,2.91,2.91,0,0,0,1.5.35v.43H149.1v-.43a2.64,2.64,0,0,0,1.3-.45,7,7,0,0,0,1.34-2.25l5.66-12.89h.4l5.6,13a6,6,0,0,0,1.22,2,2.51,2.51,0,0,0,1.54.52v.43h-6.35v-.43a2.48,2.48,0,0,0,1.3-.31.8.8,0,0,0,.34-.65,4.69,4.69,0,0,0-.47-1.6Zm-24.14-2.84h.66a5.2,5.2,0,0,0,3.43-1,3.08,3.08,0,0,0,1.16-2.47,3.24,3.24,0,0,0-.93-2.38,3.4,3.4,0,0,0-2.48-.92,11.4,11.4,0,0,0-1.84.21Zm11.42,8.06H143l-5.47-7.33h-1.68V188a3.18,3.18,0,0,0,.33,1.84,1.74,1.74,0,0,0,1.35.5h.62v.43H131.3v-.43h.61a1.64,1.64,0,0,0,1.45-.64,3.53,3.53,0,0,0,.25-1.7V177.9a3.06,3.06,0,0,0-.33-1.83,1.75,1.75,0,0,0-1.37-.51h-.61v-.43h5.86a13.76,13.76,0,0,1,3.78.37,4.31,4.31,0,0,1,2.06,1.34,3.42,3.42,0,0,1,.85,2.33,3.58,3.58,0,0,1-1,2.5,5.55,5.55,0,0,1-3,1.51l3.33,4.48a8,8,0,0,0,2,2.06,4.86,4.86,0,0,0,2.13.65Zm-24.17-15.24h0v-.43h5.66v.43h-.61a1.63,1.63,0,0,0-1.45.77,3.36,3.36,0,0,0-.25,1.66v6.35A10.79,10.79,0,0,1,126,188a4.61,4.61,0,0,1-1.88,2.23,6.8,6.8,0,0,1-3.82.93,7.33,7.33,0,0,1-4-.89,4.79,4.79,0,0,1-1.93-2.39A13,13,0,0,1,114,184v-6.1a3.11,3.11,0,0,0-.4-1.89,1.74,1.74,0,0,0-1.32-.45h-.61v-.43h7v.43H118a1.62,1.62,0,0,0-1.42.61,3.33,3.33,0,0,0-.29,1.73v6.82a16.2,16.2,0,0,0,.16,2.09,4.48,4.48,0,0,0,.63,1.84,3.43,3.43,0,0,0,1.3,1.09,4.64,4.64,0,0,0,2.08.42,5.78,5.78,0,0,0,2.82-.67,3.57,3.57,0,0,0,1.7-1.71,9.87,9.87,0,0,0,.46-3.54V177.9a3.13,3.13,0,0,0-.33-1.83,1.75,1.75,0,0,0-1.37-.51Zm-16.07-.78h0l.41,4.94H107a6.81,6.81,0,0,0-1.62-2.77,5.2,5.2,0,0,0-3.68-1.34A5.27,5.27,0,0,0,97.09,178a8.41,8.41,0,0,0-1.34,4.75,9.21,9.21,0,0,0,.9,4.09,6.09,6.09,0,0,0,2.32,2.7,5.68,5.68,0,0,0,3,.86,6.77,6.77,0,0,0,3.32-.87V185a4,4,0,0,0-.19-1.54,1.19,1.19,0,0,0-.57-.56,3.26,3.26,0,0,0-1.35-.19v-.42h6.21v.42h-.3a1.34,1.34,0,0,0-1.26.6,4.06,4.06,0,0,0-.24,1.69v4.81a11.9,11.9,0,0,1-5.68,1.33,8.74,8.74,0,0,1-7.07-2.91,7.63,7.63,0,0,1-1.81-5,8.22,8.22,0,0,1,1-4,8.49,8.49,0,0,1,3.31-3.46,8.22,8.22,0,0,1,4.17-1,8.47,8.47,0,0,1,1.59.14,14,14,0,0,1,2,.61,3.35,3.35,0,0,0,.89.24.5.5,0,0,0,.39-.2,1.54,1.54,0,0,0,.19-.79ZM89.78,190.37h0v.43H82.89v-.43h.57a1.76,1.76,0,0,0,1.45-.56A3.42,3.42,0,0,0,85.2,188V177.9a5.18,5.18,0,0,0-.16-1.57,1,1,0,0,0-.49-.49,2.3,2.3,0,0,0-1.09-.28h-.57v-.43h6.89v.43h-.57a1.74,1.74,0,0,0-1.44.56,3.31,3.31,0,0,0-.29,1.78V188a5.17,5.17,0,0,0,.15,1.57,1,1,0,0,0,.5.5,2.25,2.25,0,0,0,1.08.27ZM78.1,174.78h0v5.41h-.44a6.39,6.39,0,0,0-.76-2.48,3.92,3.92,0,0,0-1.58-1.47,4.44,4.44,0,0,0-2.11-.54,2.88,2.88,0,0,0-2,.73,2.21,2.21,0,0,0-.81,1.67,2,2,0,0,0,.51,1.31,13.21,13.21,0,0,0,3.5,2.31,23.21,23.21,0,0,1,3.08,1.81A4.16,4.16,0,0,1,78.72,185a3.74,3.74,0,0,1,.45,1.79,4,4,0,0,1-1.42,3.07,5.24,5.24,0,0,1-3.65,1.28,8.17,8.17,0,0,1-1.31-.1,13.34,13.34,0,0,1-1.53-.43,7.27,7.27,0,0,0-1.46-.37.62.62,0,0,0-.47.18,1.43,1.43,0,0,0-.26.72h-.43v-5.36h.43a7.71,7.71,0,0,0,.83,2.52,4,4,0,0,0,1.6,1.39,5,5,0,0,0,2.35.55,3.4,3.4,0,0,0,2.35-.76,2.35,2.35,0,0,0,.86-1.81,2.43,2.43,0,0,0-.33-1.17,3.4,3.4,0,0,0-1-1.1c-.82-.53-1.66-1-2.53-1.47a24.46,24.46,0,0,1-2.94-1.78,5,5,0,0,1-1.33-1.48,3.48,3.48,0,0,1-.46-1.78A3.78,3.78,0,0,1,69.8,176a4.77,4.77,0,0,1,3.38-1.22,7.14,7.14,0,0,1,2.73.61,2.8,2.8,0,0,0,.93.29.73.73,0,0,0,.51-.18,1.34,1.34,0,0,0,.31-.72Zm-21.85.83h0a4.28,4.28,0,0,0-3.45,1.56,8.66,8.66,0,0,0-1.63,5.68,9.13,9.13,0,0,0,1.68,5.9,4.21,4.21,0,0,0,3.41,1.57A4.71,4.71,0,0,0,60,188.6q1.47-1.71,1.47-5.43,0-4-1.62-6A4.4,4.4,0,0,0,56.25,175.61Zm.23-.83a7.3,7.3,0,0,1,5.41,2.32,7.86,7.86,0,0,1,2.3,5.78,8.11,8.11,0,0,1-2.31,5.92,7.88,7.88,0,0,1-11.13,0l0,0a8.12,8.12,0,0,1-2.25-6,7.9,7.9,0,0,1,7.68-8.12h.32Z"/></g></g></g></svg>